<mxfile host="Electron" agent="Mozilla/5.0 (Windows NT 10.0; Win64; x64) AppleWebKit/537.36 (KHTML, like Gecko) draw.io/24.7.17 Chrome/128.0.6613.36 Electron/32.0.1 Safari/537.36" version="24.7.17" pages="2">
  <diagram name="001 Definition" id="RlzVGlmNhgCKmOWLB71Z">
    <mxGraphModel dx="1434" dy="2005" grid="1" gridSize="10" guides="1" tooltips="1" connect="1" arrows="1" fold="1" page="1" pageScale="1" pageWidth="827" pageHeight="1169" math="0" shadow="0">
      <root>
        <mxCell id="0" />
        <mxCell id="1" parent="0" />
        <mxCell id="zYLqATAMUavmr4XK2kyf-1" value="&lt;p style=&quot;padding: 0px; margin: 12px 0px 0px; word-break: break-word; line-height: var(--cib-type-body2-line-height); font-variation-settings: var(--cib-type-body2-font-variation-settings); font-family: -apple-system, Roboto, SegoeUI, &amp;quot;Segoe UI&amp;quot;, &amp;quot;Helvetica Neue&amp;quot;, Helvetica, &amp;quot;Microsoft YaHei&amp;quot;, &amp;quot;Meiryo UI&amp;quot;, Meiryo, &amp;quot;Arial Unicode MS&amp;quot;, sans-serif; text-align: left; font-size: 22px;&quot;&gt;&lt;font style=&quot;font-size: 22px;&quot;&gt;&lt;b&gt;&lt;font color=&quot;#ff6666&quot;&gt;&lt;span style=&quot;line-height: var(--cib-type-subtitle2-stronger-line-height); font-variation-settings: var(--cib-type-subtitle2-stronger-font-variation-settings);&quot;&gt;SOLID&lt;/span&gt;&amp;nbsp;&lt;/font&gt;&lt;font color=&quot;#111111&quot;&gt;is an acronym representing five design principles intended to make software designs more understandable, flexible, and maintainable. &lt;br&gt;These principles were introduced by Robert C. Martin, also known as Uncle Bob.&lt;br&gt;&lt;/font&gt;&lt;/b&gt;&lt;/font&gt;&lt;/p&gt;" style="text;html=1;align=center;verticalAlign=middle;whiteSpace=wrap;rounded=0;fillColor=none;" vertex="1" parent="1">
          <mxGeometry x="40" y="-1120" width="660" height="170" as="geometry" />
        </mxCell>
        <mxCell id="zYLqATAMUavmr4XK2kyf-4" value="01. Single Responsibility Principle" style="swimlane;childLayout=stackLayout;horizontal=1;startSize=50;horizontalStack=0;rounded=1;fontSize=16;fontStyle=1;strokeWidth=2;resizeParent=0;resizeLast=1;shadow=0;dashed=0;align=center;fillColor=#f5f5f5;strokeColor=#666666;fontColor=default;" vertex="1" parent="1">
          <mxGeometry x="40" y="-880" width="320" height="200" as="geometry" />
        </mxCell>
        <mxCell id="zYLqATAMUavmr4XK2kyf-5" value="&lt;span style=&quot;color: rgb(17, 17, 17); font-family: -apple-system, Roboto, SegoeUI, &amp;quot;Segoe UI&amp;quot;, &amp;quot;Helvetica Neue&amp;quot;, Helvetica, &amp;quot;Microsoft YaHei&amp;quot;, &amp;quot;Meiryo UI&amp;quot;, Meiryo, &amp;quot;Arial Unicode MS&amp;quot;, sans-serif; text-align: left;&quot;&gt;&lt;font style=&quot;font-size: 18px;&quot;&gt;&lt;b&gt;A class should have only one reason to change, meaning it should only have one job or responsibility.&lt;/b&gt;&lt;/font&gt;&lt;/span&gt;" style="text;html=1;strokeColor=none;fillColor=none;align=center;verticalAlign=middle;whiteSpace=wrap;rounded=0;fontSize=16;" vertex="1" parent="zYLqATAMUavmr4XK2kyf-4">
          <mxGeometry y="50" width="320" height="150" as="geometry" />
        </mxCell>
        <mxCell id="zYLqATAMUavmr4XK2kyf-10" value="02. Open/Closed Principle (OCP)" style="swimlane;childLayout=stackLayout;horizontal=1;startSize=50;horizontalStack=0;rounded=1;fontSize=16;fontStyle=1;strokeWidth=2;resizeParent=0;resizeLast=1;shadow=0;dashed=0;align=center;fillColor=#f5f5f5;strokeColor=#666666;fontColor=default;" vertex="1" parent="1">
          <mxGeometry x="440" y="-880" width="320" height="200" as="geometry" />
        </mxCell>
        <mxCell id="zYLqATAMUavmr4XK2kyf-11" value="&lt;div style=&quot;&quot;&gt;&lt;span style=&quot;background-color: initial; font-size: 18px;&quot;&gt;&lt;font face=&quot;-apple-system, Roboto, SegoeUI, Segoe UI, Helvetica Neue, Helvetica, Microsoft YaHei, Meiryo UI, Meiryo, Arial Unicode MS, sans-serif&quot; color=&quot;#111111&quot;&gt;&lt;b&gt;Software entities (classes, modules, functions, etc.) should be open for extension but closed for modification.&lt;/b&gt;&lt;/font&gt;&lt;/span&gt;&lt;/div&gt;" style="text;html=1;strokeColor=none;fillColor=none;align=center;verticalAlign=middle;whiteSpace=wrap;rounded=0;fontSize=16;" vertex="1" parent="zYLqATAMUavmr4XK2kyf-10">
          <mxGeometry y="50" width="320" height="150" as="geometry" />
        </mxCell>
        <mxCell id="zYLqATAMUavmr4XK2kyf-12" value="03. Liskov Substitution Principle" style="swimlane;childLayout=stackLayout;horizontal=1;startSize=50;horizontalStack=0;rounded=1;fontSize=16;fontStyle=1;strokeWidth=2;resizeParent=0;resizeLast=1;shadow=0;dashed=0;align=center;fillColor=#f5f5f5;strokeColor=#666666;fontColor=default;" vertex="1" parent="1">
          <mxGeometry x="40" y="-640" width="320" height="200" as="geometry" />
        </mxCell>
        <mxCell id="zYLqATAMUavmr4XK2kyf-13" value="&lt;div style=&quot;&quot;&gt;&lt;span style=&quot;background-color: initial; font-size: 18px;&quot;&gt;&lt;font face=&quot;-apple-system, Roboto, SegoeUI, Segoe UI, Helvetica Neue, Helvetica, Microsoft YaHei, Meiryo UI, Meiryo, Arial Unicode MS, sans-serif&quot; color=&quot;#111111&quot;&gt;&lt;b&gt;Subtypes must be substitutable for their base types without altering the correctness of the program.&lt;/b&gt;&lt;/font&gt;&lt;/span&gt;&lt;/div&gt;" style="text;html=1;strokeColor=none;fillColor=none;align=center;verticalAlign=middle;whiteSpace=wrap;rounded=0;fontSize=16;" vertex="1" parent="zYLqATAMUavmr4XK2kyf-12">
          <mxGeometry y="50" width="320" height="150" as="geometry" />
        </mxCell>
        <mxCell id="zYLqATAMUavmr4XK2kyf-14" value="04. Interface Segregation Principle" style="swimlane;childLayout=stackLayout;horizontal=1;startSize=50;horizontalStack=0;rounded=1;fontSize=16;fontStyle=1;strokeWidth=2;resizeParent=0;resizeLast=1;shadow=0;dashed=0;align=center;fillColor=#f5f5f5;strokeColor=#666666;fontColor=default;" vertex="1" parent="1">
          <mxGeometry x="440" y="-640" width="320" height="200" as="geometry" />
        </mxCell>
        <mxCell id="zYLqATAMUavmr4XK2kyf-15" value="&lt;div style=&quot;&quot;&gt;&lt;span style=&quot;background-color: initial; font-size: 18px;&quot;&gt;&lt;font face=&quot;-apple-system, Roboto, SegoeUI, Segoe UI, Helvetica Neue, Helvetica, Microsoft YaHei, Meiryo UI, Meiryo, Arial Unicode MS, sans-serif&quot; color=&quot;#111111&quot;&gt;&lt;b&gt;Clients should not be forced to depend on interfaces they do not use.&lt;/b&gt;&lt;/font&gt;&lt;/span&gt;&lt;/div&gt;" style="text;html=1;strokeColor=none;fillColor=none;align=center;verticalAlign=middle;whiteSpace=wrap;rounded=0;fontSize=16;" vertex="1" parent="zYLqATAMUavmr4XK2kyf-14">
          <mxGeometry y="50" width="320" height="150" as="geometry" />
        </mxCell>
        <mxCell id="zYLqATAMUavmr4XK2kyf-16" value="05. Dependency Inversion Principle (DIP)" style="swimlane;childLayout=stackLayout;horizontal=1;startSize=50;horizontalStack=0;rounded=1;fontSize=16;fontStyle=1;strokeWidth=2;resizeParent=0;resizeLast=1;shadow=0;dashed=0;align=center;fillColor=#f5f5f5;strokeColor=#666666;fontColor=default;" vertex="1" parent="1">
          <mxGeometry x="200" y="-360" width="400" height="200" as="geometry" />
        </mxCell>
        <mxCell id="zYLqATAMUavmr4XK2kyf-17" value="&lt;div style=&quot;&quot;&gt;&lt;span style=&quot;background-color: initial; font-size: 18px;&quot;&gt;&lt;font face=&quot;-apple-system, Roboto, SegoeUI, Segoe UI, Helvetica Neue, Helvetica, Microsoft YaHei, Meiryo UI, Meiryo, Arial Unicode MS, sans-serif&quot; color=&quot;#111111&quot;&gt;&lt;b&gt;High-level modules should not depend on low-level modules. Both should depend on abstractions.&lt;/b&gt;&lt;/font&gt;&lt;/span&gt;&lt;/div&gt;" style="text;html=1;strokeColor=none;fillColor=none;align=center;verticalAlign=middle;whiteSpace=wrap;rounded=0;fontSize=16;" vertex="1" parent="zYLqATAMUavmr4XK2kyf-16">
          <mxGeometry y="50" width="400" height="150" as="geometry" />
        </mxCell>
      </root>
    </mxGraphModel>
  </diagram>
  <diagram id="Qvk_knnQo0lmqCs46goD" name="CourseRequirement">
    <mxGraphModel dx="1434" dy="836" grid="1" gridSize="10" guides="1" tooltips="1" connect="1" arrows="1" fold="1" page="1" pageScale="1" pageWidth="827" pageHeight="1169" math="0" shadow="0">
      <root>
        <mxCell id="0" />
        <mxCell id="1" parent="0" />
        <mxCell id="mn95WUEv2d1ei75jAKMe-1" value="&lt;font style=&quot;font-size: 18px;&quot;&gt;&lt;b&gt;1. Flutter&lt;/b&gt;&lt;/font&gt;" style="text;html=1;align=left;verticalAlign=middle;whiteSpace=wrap;rounded=0;" vertex="1" parent="1">
          <mxGeometry x="170" y="140" width="140" height="40" as="geometry" />
        </mxCell>
        <mxCell id="mn95WUEv2d1ei75jAKMe-2" value="&lt;font style=&quot;font-size: 18px;&quot;&gt;&lt;b&gt;2. OOP&lt;/b&gt;&lt;/font&gt;" style="text;html=1;align=left;verticalAlign=middle;whiteSpace=wrap;rounded=0;" vertex="1" parent="1">
          <mxGeometry x="180" y="250" width="140" height="40" as="geometry" />
        </mxCell>
        <mxCell id="mn0kTRw8fS5TCNcJPhzq-1" value="&lt;font size=&quot;1&quot; color=&quot;#ff6666&quot; style=&quot;&quot;&gt;&lt;b style=&quot;font-size: 25px;&quot;&gt;Course Requirements&lt;/b&gt;&lt;/font&gt;" style="text;html=1;align=center;verticalAlign=middle;whiteSpace=wrap;rounded=0;" vertex="1" parent="1">
          <mxGeometry x="240" y="40" width="320" height="40" as="geometry" />
        </mxCell>
      </root>
    </mxGraphModel>
  </diagram>
</mxfile>
